<svg xmlns="http://www.w3.org/2000/svg" viewBox="0 0 106.28 106.28"><title>Facebook</title><g id="Layer_2" data-name="Layer 2"><g id="Layer_1-2" data-name="Layer 1"><g id="Layer_1-3" data-name="Layer_1"><path d="M106.28,53.14a53.14,53.14,0,1,0-61.45,52.5V68.51H31.34V53.14h13.5V41.43c0-13.32,7.94-20.68,20.07-20.68a81.69,81.69,0,0,1,11.9,1V34.87h-6.7c-6.6,0-8.66,4.1-8.66,8.3v10H76.18L73.83,68.51H61.45v37.13A53.15,53.15,0,0,0,106.28,53.14Z" fill="#1977f3"/><path d="M73.83,68.51l2.35-15.37H61.45v-10c0-4.2,2.06-8.3,8.66-8.3h6.7V21.79a81.69,81.69,0,0,0-11.9-1c-12.14,0-20.07,7.35-20.07,20.68V53.14H31.34V68.51h13.5v37.13a53.35,53.35,0,0,0,8.3.64,54.28,54.28,0,0,0,8.3-.64V68.51Z" fill="#fefefe"/></g></g></g></svg>