<svg xmlns="http://www.w3.org/2000/svg" viewBox="0 0 94.74 94.74"><title>Linkedin</title><g id="Layer_2" data-name="Layer 2"><g id="Layer_1-2" data-name="Layer 1"><circle cx="47.37" cy="47.37" r="47.37" fill="#fff"/><path d="M47.37,0A47.37,47.37,0,1,0,94.74,47.37,47.37,47.37,0,0,0,47.37,0ZM70.54,67.64H61.85V51.41c0-9.75-11.58-9-11.58,0V67.64H41.58V35.79h8.69V40.9c4-7.49,20.27-8,20.27,7.17ZM31.44,21.9A5.11,5.11,0,1,1,26.38,27,5.09,5.09,0,0,1,31.44,21.9ZM27.1,35.79h8.69V67.64H27.1Z" fill="#0172b1"/></g></g></svg>