<svg xmlns="http://www.w3.org/2000/svg" viewBox="0 0 500 250"><title>Portfolio</title><g id="Layer_2" data-name="Layer 2"><g id="Layer_1-2" data-name="Layer 1"><rect width="500" height="250" rx="14.17" ry="14.17" fill="#fff"/><path d="M40.57,51V31.57h9.31a3.78,3.78,0,0,1,2.77,1.17,3.83,3.83,0,0,1,1.16,2.8v4.92a3.95,3.95,0,0,1-3.94,3.94H43.22V51a1.31,1.31,0,0,1-1.31,1.31A1.31,1.31,0,0,1,41,52,1.25,1.25,0,0,1,40.57,51Zm2.66-9.25h6.66a1.27,1.27,0,0,0,.92-.38,1.25,1.25,0,0,0,.39-.93V35.54a1.25,1.25,0,0,0-.39-.93,1.28,1.28,0,0,0-.92-.38H43.22Z" fill="#116058"/><path d="M73.11,42v5.55a4.37,4.37,0,0,1-1.66,3.27A5.11,5.11,0,0,1,68,52.3H64.94a5,5,0,0,1-3.44-1.52,4.42,4.42,0,0,1-1.64-3.24V42a4.46,4.46,0,0,1,1.6-3.24,5,5,0,0,1,3.48-1.52H68a5,5,0,0,1,3.43,1.47A4.4,4.4,0,0,1,73.11,42Zm-10.59.11v5.31A1.4,1.4,0,0,0,63,48.55l1,.84a1.37,1.37,0,0,0,.92.28h3a1.79,1.79,0,0,0,1.22-.48l.8-.7a1.25,1.25,0,0,0,.48-1V42.13A1.37,1.37,0,0,0,70,41l-.92-.73A1.66,1.66,0,0,0,68,39.85H65.27a2,2,0,0,0-1.37.42L63,41A1.32,1.32,0,0,0,62.52,42.1Z" fill="#116058"/><path d="M79.22,51V38.57a1.32,1.32,0,0,1,.38-.95,1.24,1.24,0,0,1,.93-.4,1.25,1.25,0,0,1,.93.39,1.31,1.31,0,0,1,.38,1v1.64L84,38.38a4.06,4.06,0,0,1,2.59-1.12h1.92a3.95,3.95,0,0,1,3.94,3.94v.7a1.31,1.31,0,0,1-.38,1,1.31,1.31,0,0,1-2.24-.92v-.73a1.31,1.31,0,0,0-1.31-1.31H86.8a2,2,0,0,0-1.22.58l-3.73,3.23V51a1.25,1.25,0,0,1-.39.93A1.31,1.31,0,0,1,79.22,51Z" fill="#116058"/><path d="M107.77,52.33h-2.62a3.84,3.84,0,0,1-2.8-1.16,3.77,3.77,0,0,1-1.17-2.78V39.88H99.83a1.28,1.28,0,0,1-.93-.37,1.32,1.32,0,0,1,.93-2.25h1.38V34a1.3,1.3,0,0,1,2.23-.92,1.25,1.25,0,0,1,.4.92v3.22h5.28a1.31,1.31,0,0,1,0,2.63H103.8V48.4a1.25,1.25,0,0,0,.4.92,1.3,1.3,0,0,0,.95.39h2.56a1.38,1.38,0,0,0,1.39-1.13,1.35,1.35,0,0,1,1.33-1.13,1.25,1.25,0,0,1,.95.38,1.33,1.33,0,0,1,.37,1,3.48,3.48,0,0,1-1.12,2.37A3.76,3.76,0,0,1,107.77,52.33Z" fill="#116058"/><path d="M123.86,39.88V51a1.25,1.25,0,0,1-.39.93,1.27,1.27,0,0,1-.92.38,1.31,1.31,0,0,1-1-.38,1.25,1.25,0,0,1-.39-.93V39.88h-1.34a1.25,1.25,0,0,1-.93-.39,1.27,1.27,0,0,1-.38-.92,1.34,1.34,0,0,1,.35-.91,1.22,1.22,0,0,1,1-.4h1.38v-1a4.44,4.44,0,0,1,1.38-3.34,4.78,4.78,0,0,1,3.45-1.33h3.08a1.25,1.25,0,0,1,.93.39,1.31,1.31,0,0,1,.38,1,1.33,1.33,0,0,1-1.31,1.31h-3.08a2.22,2.22,0,0,0-1.55.56,1.88,1.88,0,0,0-.62,1.45v1h2.63a1.21,1.21,0,0,1,.92.38,1.28,1.28,0,0,1,.39.94,1.33,1.33,0,0,1-1.31,1.31Z" fill="#116058"/><path d="M150.43,42v5.55a4.37,4.37,0,0,1-1.66,3.27,5.11,5.11,0,0,1-3.43,1.5h-3.08a5,5,0,0,1-3.44-1.52,4.42,4.42,0,0,1-1.64-3.24V42a4.46,4.46,0,0,1,1.6-3.24,5,5,0,0,1,3.48-1.52h3.08a5,5,0,0,1,3.43,1.47A4.4,4.4,0,0,1,150.43,42Zm-10.59.11v5.31a1.4,1.4,0,0,0,.52,1.14l1,.84a1.37,1.37,0,0,0,.92.28h3a1.79,1.79,0,0,0,1.22-.48l.8-.7a1.25,1.25,0,0,0,.48-1V42.13a1.37,1.37,0,0,0-.48-1.16l-.92-.73a1.66,1.66,0,0,0-1.09-.39h-2.72a2,2,0,0,0-1.37.42l-.89.77A1.32,1.32,0,0,0,139.83,42.1Z" fill="#116058"/><path d="M167.13,52.33h-7.94a1.24,1.24,0,0,1-.93-.4,1.32,1.32,0,0,1-.38-.95,1.27,1.27,0,0,1,.38-.92,1.25,1.25,0,0,1,.93-.39h2.63V34.19h-2.66a1.31,1.31,0,1,1,0-2.62h4a1.33,1.33,0,0,1,1.31,1.31v16.8h2.66A1.33,1.33,0,0,1,168.44,51a1.32,1.32,0,0,1-.38.95A1.24,1.24,0,0,1,167.13,52.33Z" fill="#116058"/><path d="M186.46,52.3h-8a1.31,1.31,0,0,1,0-2.62h2.69v-9.8h-2.66a1.25,1.25,0,0,1-.93-.39,1.27,1.27,0,0,1-.38-.92,1.32,1.32,0,0,1,.38-.95,1.24,1.24,0,0,1,.93-.4h4a1.24,1.24,0,0,1,.93.4,1.32,1.32,0,0,1,.38.95V49.68h2.63a1.32,1.32,0,0,1,.95.38,1.29,1.29,0,0,1,0,1.86A1.27,1.27,0,0,1,186.46,52.3Zm-5.34-21.89h1.38a1.31,1.31,0,0,1,1.31,1.31v1.12a1.32,1.32,0,0,1-.38.95,1.24,1.24,0,0,1-.93.4h-1.41a1.25,1.25,0,0,1-.95-.41,1.23,1.23,0,0,1-.37-.91l0-1.16a1.31,1.31,0,0,1,1.31-1.31Z" fill="#116058"/><path d="M208.41,42v5.55a4.37,4.37,0,0,1-1.66,3.27,5.11,5.11,0,0,1-3.43,1.5h-3.08a5,5,0,0,1-3.44-1.52,4.42,4.42,0,0,1-1.64-3.24V42a4.46,4.46,0,0,1,1.6-3.24,5,5,0,0,1,3.48-1.52h3.08a5,5,0,0,1,3.43,1.47A4.4,4.4,0,0,1,208.41,42Zm-10.59.11v5.31a1.4,1.4,0,0,0,.52,1.14l1,.84a1.37,1.37,0,0,0,.92.28h3a1.79,1.79,0,0,0,1.22-.48l.8-.7a1.25,1.25,0,0,0,.48-1V42.13A1.37,1.37,0,0,0,205.3,41l-.92-.73a1.66,1.66,0,0,0-1.09-.39h-2.72a2,2,0,0,0-1.37.42l-.89.77A1.32,1.32,0,0,0,197.82,42.1Z" fill="#116058"/><path d="M41.32,52V32.57h9.31a3.78,3.78,0,0,1,2.77,1.17,3.83,3.83,0,0,1,1.16,2.8v4.92a3.95,3.95,0,0,1-3.94,3.94H44V52a1.31,1.31,0,0,1-1.31,1.31,1.31,1.31,0,0,1-1-.38A1.25,1.25,0,0,1,41.32,52ZM44,42.77h6.66a1.27,1.27,0,0,0,.92-.38,1.25,1.25,0,0,0,.39-.93V36.54a1.25,1.25,0,0,0-.39-.93,1.28,1.28,0,0,0-.92-.38H44Z" fill="#189e94"/><path d="M73.86,43v5.55A4.37,4.37,0,0,1,72.2,51.8a5.11,5.11,0,0,1-3.43,1.5H65.69a5,5,0,0,1-3.44-1.52,4.42,4.42,0,0,1-1.64-3.24V43a4.46,4.46,0,0,1,1.6-3.24,5,5,0,0,1,3.48-1.52h3.08a5,5,0,0,1,3.43,1.47A4.4,4.4,0,0,1,73.86,43Zm-10.59.11v5.31a1.4,1.4,0,0,0,.52,1.14l1,.84a1.37,1.37,0,0,0,.92.28h3A1.79,1.79,0,0,0,70,50.19l.8-.7a1.25,1.25,0,0,0,.48-1V43.13A1.37,1.37,0,0,0,70.76,42l-.92-.73a1.66,1.66,0,0,0-1.09-.39H66a2,2,0,0,0-1.37.42l-.89.77A1.32,1.32,0,0,0,63.27,43.1Z" fill="#189e94"/><path d="M80,52V39.57a1.32,1.32,0,0,1,.38-.95,1.24,1.24,0,0,1,.93-.4,1.25,1.25,0,0,1,.93.39,1.31,1.31,0,0,1,.38,1v1.64l2.14-1.83a4.06,4.06,0,0,1,2.59-1.12h1.92a3.95,3.95,0,0,1,3.94,3.94v.7a1.31,1.31,0,0,1-.38,1,1.31,1.31,0,0,1-2.24-.92v-.73a1.31,1.31,0,0,0-1.31-1.31h-1.7a2,2,0,0,0-1.22.58L82.6,44.69V52a1.25,1.25,0,0,1-.39.93A1.31,1.31,0,0,1,80,52Z" fill="#189e94"/><path d="M108.52,53.33H105.9a3.84,3.84,0,0,1-2.8-1.16,3.77,3.77,0,0,1-1.17-2.78V40.88h-1.34a1.28,1.28,0,0,1-.93-.37,1.32,1.32,0,0,1,.93-2.25H102V35a1.3,1.3,0,0,1,2.23-.92,1.25,1.25,0,0,1,.4.92v3.22h5.28a1.31,1.31,0,0,1,0,2.63h-5.31V49.4a1.25,1.25,0,0,0,.4.92,1.3,1.3,0,0,0,.95.39h2.56a1.38,1.38,0,0,0,1.39-1.13,1.35,1.35,0,0,1,1.33-1.13,1.25,1.25,0,0,1,.95.38,1.33,1.33,0,0,1,.37,1,3.48,3.48,0,0,1-1.12,2.37A3.76,3.76,0,0,1,108.52,53.33Z" fill="#189e94"/><path d="M124.61,40.88V52a1.25,1.25,0,0,1-.39.93,1.27,1.27,0,0,1-.92.38,1.31,1.31,0,0,1-1-.38A1.25,1.25,0,0,1,122,52V40.88h-1.34a1.25,1.25,0,0,1-.93-.39,1.27,1.27,0,0,1-.38-.92,1.34,1.34,0,0,1,.35-.91,1.22,1.22,0,0,1,1-.4H122v-1a4.44,4.44,0,0,1,1.38-3.34,4.78,4.78,0,0,1,3.45-1.33h3.08a1.25,1.25,0,0,1,.93.39,1.31,1.31,0,0,1,.38,1,1.33,1.33,0,0,1-1.31,1.31h-3.08a2.22,2.22,0,0,0-1.55.56,1.88,1.88,0,0,0-.62,1.45v1h2.63a1.21,1.21,0,0,1,.92.38,1.28,1.28,0,0,1,.39.94,1.33,1.33,0,0,1-1.31,1.31Z" fill="#189e94"/><path d="M151.18,43v5.55a4.37,4.37,0,0,1-1.66,3.27,5.11,5.11,0,0,1-3.43,1.5H143a5,5,0,0,1-3.44-1.52,4.42,4.42,0,0,1-1.64-3.24V43a4.46,4.46,0,0,1,1.6-3.24A5,5,0,0,1,143,38.22h3.08a5,5,0,0,1,3.43,1.47A4.4,4.4,0,0,1,151.18,43Zm-10.59.11v5.31a1.4,1.4,0,0,0,.52,1.14l1,.84a1.37,1.37,0,0,0,.92.28h3a1.79,1.79,0,0,0,1.22-.48l.8-.7a1.25,1.25,0,0,0,.48-1V43.13a1.37,1.37,0,0,0-.48-1.16l-.92-.73a1.66,1.66,0,0,0-1.09-.39h-2.72a2,2,0,0,0-1.37.42l-.89.77A1.32,1.32,0,0,0,140.58,43.1Z" fill="#189e94"/><path d="M167.88,53.33h-7.94a1.24,1.24,0,0,1-.93-.4,1.32,1.32,0,0,1-.38-.95,1.27,1.27,0,0,1,.38-.92,1.25,1.25,0,0,1,.93-.39h2.63V35.19h-2.66a1.31,1.31,0,1,1,0-2.62h4a1.33,1.33,0,0,1,1.31,1.31v16.8h2.66A1.33,1.33,0,0,1,169.19,52a1.32,1.32,0,0,1-.38.95A1.24,1.24,0,0,1,167.88,53.33Z" fill="#189e94"/><path d="M187.21,53.3h-8a1.31,1.31,0,0,1,0-2.62h2.69v-9.8h-2.66a1.25,1.25,0,0,1-.93-.39,1.27,1.27,0,0,1-.38-.92,1.32,1.32,0,0,1,.38-.95,1.24,1.24,0,0,1,.93-.4h4a1.24,1.24,0,0,1,.93.4,1.32,1.32,0,0,1,.38.95V50.68h2.63a1.32,1.32,0,0,1,.95.38,1.29,1.29,0,0,1,0,1.86A1.27,1.27,0,0,1,187.21,53.3Zm-5.34-21.89h1.38a1.31,1.31,0,0,1,1.31,1.31v1.13a1.32,1.32,0,0,1-.38.95,1.24,1.24,0,0,1-.93.4h-1.41a1.25,1.25,0,0,1-.95-.41,1.23,1.23,0,0,1-.37-.91l0-1.16a1.31,1.31,0,0,1,1.31-1.31Z" fill="#189e94"/><path d="M209.16,43v5.55a4.37,4.37,0,0,1-1.66,3.27,5.11,5.11,0,0,1-3.43,1.5H201a5,5,0,0,1-3.44-1.52,4.42,4.42,0,0,1-1.64-3.24V43a4.46,4.46,0,0,1,1.6-3.24A5,5,0,0,1,201,38.22h3.08a5,5,0,0,1,3.43,1.47A4.4,4.4,0,0,1,209.16,43Zm-10.59.11v5.31a1.4,1.4,0,0,0,.52,1.14l1,.84a1.37,1.37,0,0,0,.92.28h3a1.79,1.79,0,0,0,1.22-.48l.8-.7a1.25,1.25,0,0,0,.48-1V43.13a1.37,1.37,0,0,0-.48-1.16l-.92-.73a1.66,1.66,0,0,0-1.09-.39h-2.72a2,2,0,0,0-1.37.42l-.89.77A1.32,1.32,0,0,0,198.57,43.1Z" fill="#189e94"/><text transform="translate(161.13 103.39)" font-size="17" fill="#189e94" font-family="Bahnschrift, Bahnschrift">Description and <tspan x="123.73" y="0" letter-spacing="-0.02em">P</tspan><tspan x="133.9" y="0">rice</tspan></text><text transform="translate(161.2 155.69)" font-size="17" fill="#189e94" font-family="Bahnschrift, Bahnschrift">Examples</text><text transform="translate(161.16 207.75)" font-size="17" fill="#189e94" font-family="Bahnschrift, Bahnschrift">Contact</text><g id="Layer_2-2" data-name="Layer 2"><g id="Layer_1-2-2" data-name="Layer 1-2"><circle cx="137.23" cy="97.52" r="14.42" fill="none" stroke="#189e94" stroke-width="0.89"/><path d="M140,107h2a2.08,2.08,0,0,0,2.08-2.08V97.69A2.08,2.08,0,0,0,142,95.62h-9.48a2.08,2.08,0,0,0-2.08,2.08v7.24a2.08,2.08,0,0,0,2.08,2.08h2" fill="none" stroke="#189e94" stroke-linecap="round" stroke-width="0.69"/><path d="M127.33,96.74l7.89-7.88a2.86,2.86,0,0,1,4,0l7.89,7.88" fill="none" stroke="#189e94" stroke-linecap="round" stroke-width="0.95"/><polyline points="134.58 107.02 134.58 101.76 139.89 101.76 139.89 107.02" fill="none" stroke="#189e94" stroke-linecap="round" stroke-linejoin="round" stroke-width="0.49"/></g></g><g id="Layer_2-3" data-name="Layer 2"><g id="Layer_1-2-3" data-name="Layer 1-2"><circle cx="137.3" cy="150.74" r="14.42" fill="none" stroke="#189e94" stroke-width="0.89"/><rect x="128.24" y="145.08" width="18.49" height="12.72" rx="1.65" ry="1.65" fill="none" stroke="#189e94" stroke-width="0.89"/><path d="M135.08,142.55h4.8a.69.69,0,0,1,.69.69v1.85h-6.18v-1.85a.69.69,0,0,1,.69-.69Z" fill="none" stroke="#189e94" stroke-width="0.89"/><line x1="128.24" y1="149.6" x2="137.5" y2="151.44" fill="none" stroke="#189e94" stroke-width="0.89"/><line x1="146.72" y1="149.6" x2="137.48" y2="151.44" fill="none" stroke="#189e94" stroke-width="0.89"/><line x1="136.95" y1="150.05" x2="137.93" y2="150.05" fill="none" stroke="#189e94" stroke-width="0.89"/></g></g><circle cx="137.46" cy="203.96" r="14.42" fill="none" stroke="#189e94" stroke-width="0.75"/><path d="M145.69,208.16a11.39,11.39,0,0,0-1.36-1.09,14.63,14.63,0,0,0-1.5-.93,2.77,2.77,0,0,0-1.23-.44,1.07,1.07,0,0,0-.89.53,4.46,4.46,0,0,0-.41.8,3.34,3.34,0,0,1-.3.61v0h0a4.48,4.48,0,0,1-1.29-.69,11.77,11.77,0,0,1-3.41-3.41,4.58,4.58,0,0,1-.69-1.29v0l0,0a3.37,3.37,0,0,1,.6-.3l.05,0a4.39,4.39,0,0,0,.76-.39,1.06,1.06,0,0,0,.53-.89,2.73,2.73,0,0,0-.44-1.23,14.42,14.42,0,0,0-.93-1.5,11.66,11.66,0,0,0-1.09-1.36c-.47-.49-.83-.7-1.15-.7-.64,0-1.47.81-2,1.57a5.41,5.41,0,0,0-1.18,2.84,7.75,7.75,0,0,0,1.32,3.44,23.93,23.93,0,0,0,3.14,4l.4.4a23.81,23.81,0,0,0,4,3.15,7.64,7.64,0,0,0,3.44,1.32,5.4,5.4,0,0,0,2.84-1.18c.75-.57,1.57-1.4,1.57-2A1.84,1.84,0,0,0,145.69,208.16Zm-3.7,3.45a6.75,6.75,0,0,1-3-1.18,23.21,23.21,0,0,1-3.82-3l-.39-.39a23.31,23.31,0,0,1-3-3.82,6.76,6.76,0,0,1-1.18-3,4.27,4.27,0,0,1,1-2.24,5.74,5.74,0,0,1,.83-.91,1.51,1.51,0,0,1,.5-.32h0a6.21,6.21,0,0,1,1.57,1.76,13.46,13.46,0,0,1,.82,1.33,2.6,2.6,0,0,1,.32.77v0a.71.71,0,0,1-.21.17,5.41,5.41,0,0,1-.53.24l-.06,0a4.77,4.77,0,0,0-.7.35.91.91,0,0,0-.48.78c0,.15,0,.6.86,1.85a12.76,12.76,0,0,0,3.65,3.66c1.25.85,1.7.86,1.85.86a.94.94,0,0,0,.8-.49,4.89,4.89,0,0,0,.35-.69,5.63,5.63,0,0,1,.28-.57.66.66,0,0,1,.17-.21h0a3,3,0,0,1,.77.32,13.49,13.49,0,0,1,1.34.82,5.9,5.9,0,0,1,1.75,1.57h0a1.52,1.52,0,0,1-.32.49,6,6,0,0,1-.91.83A4.41,4.41,0,0,1,142,211.61Z" fill="none" stroke="#189e94" stroke-width="0.5"/></g></g></svg>