<svg xmlns="http://www.w3.org/2000/svg" viewBox="0 0 500 250"><title>Portfolio</title><g id="Layer_2" data-name="Layer 2"><g id="Layer_1-2" data-name="Layer 1"><rect width="500" height="250" rx="14.17" ry="14.17" fill="#fff"/><text transform="translate(37.33 52.33)" font-size="32" fill="#116058" font-family="OCRAExtended, OCR A Extended">Portfolio</text><text transform="translate(38.08 53.33)" font-size="32" fill="#189e94" font-family="OCRAExtended, OCR A Extended">Portfolio</text><text transform="translate(161.13 103.39)" font-size="17" fill="#189e94" font-family="Bahnschrift, Bahnschrift">Description and <tspan x="123.73" y="0" letter-spacing="-0.02em">P</tspan><tspan x="133.9" y="0">rice</tspan></text><text transform="translate(161.2 155.69)" font-size="17" fill="#189e94" font-family="Bahnschrift, Bahnschrift">Examples</text><text transform="translate(161.16 207.75)" font-size="17" fill="#189e94" font-family="Bahnschrift, Bahnschrift">Contact</text><g id="Layer_2-2" data-name="Layer 2"><g id="Layer_1-2-2" data-name="Layer 1-2"><circle cx="137.23" cy="97.52" r="14.42" fill="none" stroke="#189e94" stroke-width="0.89"/><path d="M140,107h2a2.08,2.08,0,0,0,2.08-2.08V97.69A2.08,2.08,0,0,0,142,95.62h-9.48a2.08,2.08,0,0,0-2.08,2.08v7.24a2.08,2.08,0,0,0,2.08,2.08h2" fill="none" stroke="#189e94" stroke-linecap="round" stroke-width="0.69"/><path d="M127.33,96.74l7.89-7.88a2.86,2.86,0,0,1,4,0l7.89,7.88" fill="none" stroke="#189e94" stroke-linecap="round" stroke-width="0.95"/><polyline points="134.58 107.02 134.58 101.76 139.89 101.76 139.89 107.02" fill="none" stroke="#189e94" stroke-linecap="round" stroke-linejoin="round" stroke-width="0.49"/></g></g><g id="Layer_2-3" data-name="Layer 2"><g id="Layer_1-2-3" data-name="Layer 1-2"><circle cx="137.3" cy="150.74" r="14.42" fill="none" stroke="#189e94" stroke-width="0.89"/><rect x="128.24" y="145.08" width="18.49" height="12.72" rx="1.65" ry="1.65" fill="none" stroke="#189e94" stroke-width="0.89"/><path d="M135.08,142.55h4.8a.69.69,0,0,1,.69.69v1.85h-6.18v-1.85a.69.69,0,0,1,.69-.69Z" fill="none" stroke="#189e94" stroke-width="0.89"/><line x1="128.24" y1="149.6" x2="137.5" y2="151.44" fill="none" stroke="#189e94" stroke-width="0.89"/><line x1="146.72" y1="149.6" x2="137.48" y2="151.44" fill="none" stroke="#189e94" stroke-width="0.89"/><line x1="136.95" y1="150.05" x2="137.93" y2="150.05" fill="none" stroke="#189e94" stroke-width="0.89"/></g></g><circle cx="137.46" cy="203.96" r="14.42" fill="none" stroke="#189e94" stroke-width="0.75"/><path d="M145.69,208.16a11.39,11.39,0,0,0-1.36-1.09,14.63,14.63,0,0,0-1.5-.93,2.77,2.77,0,0,0-1.23-.44,1.07,1.07,0,0,0-.89.53,4.46,4.46,0,0,0-.41.8,3.34,3.34,0,0,1-.3.61v0h0a4.48,4.48,0,0,1-1.29-.69,11.77,11.77,0,0,1-3.41-3.41,4.58,4.58,0,0,1-.69-1.29v0l0,0a3.37,3.37,0,0,1,.6-.3l.05,0a4.39,4.39,0,0,0,.76-.39,1.06,1.06,0,0,0,.53-.89,2.73,2.73,0,0,0-.44-1.23,14.42,14.42,0,0,0-.93-1.5,11.66,11.66,0,0,0-1.09-1.36c-.47-.49-.83-.7-1.15-.7-.64,0-1.47.81-2,1.57a5.41,5.41,0,0,0-1.18,2.84,7.75,7.75,0,0,0,1.32,3.44,23.93,23.93,0,0,0,3.14,4l.4.4a23.81,23.81,0,0,0,4,3.15,7.64,7.64,0,0,0,3.44,1.32,5.4,5.4,0,0,0,2.84-1.18c.75-.57,1.57-1.4,1.57-2A1.84,1.84,0,0,0,145.69,208.16Zm-3.7,3.45a6.75,6.75,0,0,1-3-1.18,23.21,23.21,0,0,1-3.82-3l-.39-.39a23.31,23.31,0,0,1-3-3.82,6.76,6.76,0,0,1-1.18-3,4.27,4.27,0,0,1,1-2.24,5.74,5.74,0,0,1,.83-.91,1.51,1.51,0,0,1,.5-.32h0a6.21,6.21,0,0,1,1.57,1.76,13.46,13.46,0,0,1,.82,1.33,2.6,2.6,0,0,1,.32.77v0a.71.71,0,0,1-.21.17,5.41,5.41,0,0,1-.53.24l-.06,0a4.77,4.77,0,0,0-.7.35.91.91,0,0,0-.48.78c0,.15,0,.6.86,1.85a12.76,12.76,0,0,0,3.65,3.66c1.25.85,1.7.86,1.85.86a.94.94,0,0,0,.8-.49,4.89,4.89,0,0,0,.35-.69,5.63,5.63,0,0,1,.28-.57.66.66,0,0,1,.17-.21h0a3,3,0,0,1,.77.32,13.49,13.49,0,0,1,1.34.82,5.9,5.9,0,0,1,1.75,1.57h0a1.52,1.52,0,0,1-.32.49,6,6,0,0,1-.91.83A4.41,4.41,0,0,1,142,211.61Z" fill="none" stroke="#189e94" stroke-width="0.5"/></g></g></svg>