<svg width="490" xmlns="http://www.w3.org/2000/svg" xmlns:xlink="http://www.w3.org/1999/xlink" viewBox="0 0 500 250"><defs><linearGradient id="linear-gradient" x1="55.29" y1="-56.57" x2="444.71" y2="306.57" gradientUnits="userSpaceOnUse"><stop offset="0" stop-color="#064141"/><stop offset="1" stop-color="#042627"/></linearGradient></defs><title>Portfolio</title><g id="Layer_2" data-name="Layer 2"><g id="Layer_1-2" data-name="Layer 1"><rect width="500" height="250" rx="4.5" ry="4.5" fill="url(#linear-gradient)"/><path d="M40.57,51V31.57h9.31a3.78,3.78,0,0,1,2.77,1.17,3.83,3.83,0,0,1,1.16,2.8v4.92a3.95,3.95,0,0,1-3.94,3.94H43.22V51a1.31,1.31,0,0,1-1.31,1.31A1.31,1.31,0,0,1,41,52,1.25,1.25,0,0,1,40.57,51Zm2.66-9.25h6.66a1.27,1.27,0,0,0,.92-.38,1.25,1.25,0,0,0,.39-.93V35.54a1.25,1.25,0,0,0-.39-.93,1.28,1.28,0,0,0-.92-.38H43.22Z" fill="#116058"/><path d="M73.11,42v5.55a4.37,4.37,0,0,1-1.66,3.27A5.11,5.11,0,0,1,68,52.3H64.94a5,5,0,0,1-3.44-1.52,4.42,4.42,0,0,1-1.64-3.24V42a4.46,4.46,0,0,1,1.6-3.24,5,5,0,0,1,3.48-1.52H68a5,5,0,0,1,3.43,1.47A4.4,4.4,0,0,1,73.11,42Zm-10.59.11v5.31A1.4,1.4,0,0,0,63,48.55l1,.84a1.37,1.37,0,0,0,.92.28h3a1.79,1.79,0,0,0,1.22-.48l.8-.7a1.25,1.25,0,0,0,.48-1V42.13A1.37,1.37,0,0,0,70,41l-.92-.73A1.66,1.66,0,0,0,68,39.85H65.27a2,2,0,0,0-1.37.42L63,41A1.32,1.32,0,0,0,62.52,42.1Z" fill="#116058"/><path d="M79.22,51V38.57a1.32,1.32,0,0,1,.38-.95,1.24,1.24,0,0,1,.93-.4,1.25,1.25,0,0,1,.93.39,1.31,1.31,0,0,1,.38,1v1.64L84,38.38a4.06,4.06,0,0,1,2.59-1.12h1.92a3.95,3.95,0,0,1,3.94,3.94v.7a1.31,1.31,0,0,1-.38,1,1.31,1.31,0,0,1-2.24-.92v-.73a1.31,1.31,0,0,0-1.31-1.31H86.8a2,2,0,0,0-1.22.58l-3.73,3.23V51a1.25,1.25,0,0,1-.39.93A1.31,1.31,0,0,1,79.22,51Z" fill="#116058"/><path d="M107.77,52.33h-2.62a3.84,3.84,0,0,1-2.8-1.16,3.77,3.77,0,0,1-1.17-2.78V39.88H99.83a1.28,1.28,0,0,1-.93-.37,1.32,1.32,0,0,1,.93-2.25h1.38V34a1.3,1.3,0,0,1,2.23-.92,1.25,1.25,0,0,1,.4.92v3.22h5.28a1.31,1.31,0,0,1,0,2.63H103.8V48.4a1.25,1.25,0,0,0,.4.92,1.3,1.3,0,0,0,.95.39h2.56a1.38,1.38,0,0,0,1.39-1.13,1.35,1.35,0,0,1,1.33-1.13,1.25,1.25,0,0,1,.95.38,1.33,1.33,0,0,1,.37,1,3.48,3.48,0,0,1-1.12,2.37A3.76,3.76,0,0,1,107.77,52.33Z" fill="#116058"/><path d="M123.86,39.88V51a1.25,1.25,0,0,1-.39.93,1.27,1.27,0,0,1-.92.38,1.31,1.31,0,0,1-1-.38,1.25,1.25,0,0,1-.39-.93V39.88h-1.34a1.25,1.25,0,0,1-.93-.39,1.27,1.27,0,0,1-.38-.92,1.34,1.34,0,0,1,.35-.91,1.22,1.22,0,0,1,1-.4h1.38v-1a4.44,4.44,0,0,1,1.38-3.34,4.78,4.78,0,0,1,3.45-1.33h3.08a1.25,1.25,0,0,1,.93.39,1.31,1.31,0,0,1,.38,1,1.33,1.33,0,0,1-1.31,1.31h-3.08a2.22,2.22,0,0,0-1.55.56,1.88,1.88,0,0,0-.62,1.45v1h2.63a1.21,1.21,0,0,1,.92.38,1.28,1.28,0,0,1,.39.94,1.33,1.33,0,0,1-1.31,1.31Z" fill="#116058"/><path d="M150.43,42v5.55a4.37,4.37,0,0,1-1.66,3.27,5.11,5.11,0,0,1-3.43,1.5h-3.08a5,5,0,0,1-3.44-1.52,4.42,4.42,0,0,1-1.64-3.24V42a4.46,4.46,0,0,1,1.6-3.24,5,5,0,0,1,3.48-1.52h3.08a5,5,0,0,1,3.43,1.47A4.4,4.4,0,0,1,150.43,42Zm-10.59.11v5.31a1.4,1.4,0,0,0,.52,1.14l1,.84a1.37,1.37,0,0,0,.92.28h3a1.79,1.79,0,0,0,1.22-.48l.8-.7a1.25,1.25,0,0,0,.48-1V42.13a1.37,1.37,0,0,0-.48-1.16l-.92-.73a1.66,1.66,0,0,0-1.09-.39h-2.72a2,2,0,0,0-1.37.42l-.89.77A1.32,1.32,0,0,0,139.83,42.1Z" fill="#116058"/><path d="M167.13,52.33h-7.94a1.24,1.24,0,0,1-.93-.4,1.32,1.32,0,0,1-.38-.95,1.27,1.27,0,0,1,.38-.92,1.25,1.25,0,0,1,.93-.39h2.63V34.19h-2.66a1.31,1.31,0,1,1,0-2.62h4a1.33,1.33,0,0,1,1.31,1.31v16.8h2.66A1.33,1.33,0,0,1,168.44,51a1.32,1.32,0,0,1-.38.95A1.24,1.24,0,0,1,167.13,52.33Z" fill="#116058"/><path d="M186.46,52.3h-8a1.31,1.31,0,0,1,0-2.62h2.69v-9.8h-2.66a1.25,1.25,0,0,1-.93-.39,1.27,1.27,0,0,1-.38-.92,1.32,1.32,0,0,1,.38-.95,1.24,1.24,0,0,1,.93-.4h4a1.24,1.24,0,0,1,.93.4,1.32,1.32,0,0,1,.38.95V49.68h2.63a1.32,1.32,0,0,1,.95.38,1.29,1.29,0,0,1,0,1.86A1.27,1.27,0,0,1,186.46,52.3Zm-5.34-21.89h1.38a1.31,1.31,0,0,1,1.31,1.31v1.12a1.32,1.32,0,0,1-.38.95,1.24,1.24,0,0,1-.93.4h-1.41a1.25,1.25,0,0,1-.95-.41,1.23,1.23,0,0,1-.37-.91l0-1.16a1.31,1.31,0,0,1,1.31-1.31Z" fill="#116058"/><path d="M208.41,42v5.55a4.37,4.37,0,0,1-1.66,3.27,5.11,5.11,0,0,1-3.43,1.5h-3.08a5,5,0,0,1-3.44-1.52,4.42,4.42,0,0,1-1.64-3.24V42a4.46,4.46,0,0,1,1.6-3.24,5,5,0,0,1,3.48-1.52h3.08a5,5,0,0,1,3.43,1.47A4.4,4.4,0,0,1,208.41,42Zm-10.59.11v5.31a1.4,1.4,0,0,0,.52,1.14l1,.84a1.37,1.37,0,0,0,.92.28h3a1.79,1.79,0,0,0,1.22-.48l.8-.7a1.25,1.25,0,0,0,.48-1V42.13A1.37,1.37,0,0,0,205.3,41l-.92-.73a1.66,1.66,0,0,0-1.09-.39h-2.72a2,2,0,0,0-1.37.42l-.89.77A1.32,1.32,0,0,0,197.82,42.1Z" fill="#116058"/><path d="M41.32,52V32.57h9.31a3.78,3.78,0,0,1,2.77,1.17,3.83,3.83,0,0,1,1.16,2.8v4.92a3.95,3.95,0,0,1-3.94,3.94H44V52a1.31,1.31,0,0,1-1.31,1.31,1.31,1.31,0,0,1-1-.38A1.25,1.25,0,0,1,41.32,52ZM44,42.77h6.66a1.27,1.27,0,0,0,.92-.38,1.25,1.25,0,0,0,.39-.93V36.54a1.25,1.25,0,0,0-.39-.93,1.28,1.28,0,0,0-.92-.38H44Z" fill="#189e94"/><path d="M73.86,43v5.55A4.37,4.37,0,0,1,72.2,51.8a5.11,5.11,0,0,1-3.43,1.5H65.69a5,5,0,0,1-3.44-1.52,4.42,4.42,0,0,1-1.64-3.24V43a4.46,4.46,0,0,1,1.6-3.24,5,5,0,0,1,3.48-1.52h3.08a5,5,0,0,1,3.43,1.47A4.4,4.4,0,0,1,73.86,43Zm-10.59.11v5.31a1.4,1.4,0,0,0,.52,1.14l1,.84a1.37,1.37,0,0,0,.92.28h3A1.79,1.79,0,0,0,70,50.19l.8-.7a1.25,1.25,0,0,0,.48-1V43.13A1.37,1.37,0,0,0,70.76,42l-.92-.73a1.66,1.66,0,0,0-1.09-.39H66a2,2,0,0,0-1.37.42l-.89.77A1.32,1.32,0,0,0,63.27,43.1Z" fill="#189e94"/><path d="M80,52V39.57a1.32,1.32,0,0,1,.38-.95,1.24,1.24,0,0,1,.93-.4,1.25,1.25,0,0,1,.93.39,1.31,1.31,0,0,1,.38,1v1.64l2.14-1.83a4.06,4.06,0,0,1,2.59-1.12h1.92a3.95,3.95,0,0,1,3.94,3.94v.7a1.31,1.31,0,0,1-.38,1,1.31,1.31,0,0,1-2.24-.92v-.73a1.31,1.31,0,0,0-1.31-1.31h-1.7a2,2,0,0,0-1.22.58L82.6,44.69V52a1.25,1.25,0,0,1-.39.93A1.31,1.31,0,0,1,80,52Z" fill="#189e94"/><path d="M108.52,53.33H105.9a3.84,3.84,0,0,1-2.8-1.16,3.77,3.77,0,0,1-1.17-2.78V40.88h-1.34a1.28,1.28,0,0,1-.93-.37,1.32,1.32,0,0,1,.93-2.25H102V35a1.3,1.3,0,0,1,2.23-.92,1.25,1.25,0,0,1,.4.92v3.22h5.28a1.31,1.31,0,0,1,0,2.63h-5.31V49.4a1.25,1.25,0,0,0,.4.92,1.3,1.3,0,0,0,.95.39h2.56a1.38,1.38,0,0,0,1.39-1.13,1.35,1.35,0,0,1,1.33-1.13,1.25,1.25,0,0,1,.95.38,1.33,1.33,0,0,1,.37,1,3.48,3.48,0,0,1-1.12,2.37A3.76,3.76,0,0,1,108.52,53.33Z" fill="#189e94"/><path d="M124.61,40.88V52a1.25,1.25,0,0,1-.39.93,1.27,1.27,0,0,1-.92.38,1.31,1.31,0,0,1-1-.38A1.25,1.25,0,0,1,122,52V40.88h-1.34a1.25,1.25,0,0,1-.93-.39,1.27,1.27,0,0,1-.38-.92,1.34,1.34,0,0,1,.35-.91,1.22,1.22,0,0,1,1-.4H122v-1a4.44,4.44,0,0,1,1.38-3.34,4.78,4.78,0,0,1,3.45-1.33h3.08a1.25,1.25,0,0,1,.93.39,1.31,1.31,0,0,1,.38,1,1.33,1.33,0,0,1-1.31,1.31h-3.08a2.22,2.22,0,0,0-1.55.56,1.88,1.88,0,0,0-.62,1.45v1h2.63a1.21,1.21,0,0,1,.92.38,1.28,1.28,0,0,1,.39.94,1.33,1.33,0,0,1-1.31,1.31Z" fill="#189e94"/><path d="M151.18,43v5.55a4.37,4.37,0,0,1-1.66,3.27,5.11,5.11,0,0,1-3.43,1.5H143a5,5,0,0,1-3.44-1.52,4.42,4.42,0,0,1-1.64-3.24V43a4.46,4.46,0,0,1,1.6-3.24A5,5,0,0,1,143,38.22h3.08a5,5,0,0,1,3.43,1.47A4.4,4.4,0,0,1,151.18,43Zm-10.59.11v5.31a1.4,1.4,0,0,0,.52,1.14l1,.84a1.37,1.37,0,0,0,.92.28h3a1.79,1.79,0,0,0,1.22-.48l.8-.7a1.25,1.25,0,0,0,.48-1V43.13a1.37,1.37,0,0,0-.48-1.16l-.92-.73a1.66,1.66,0,0,0-1.09-.39h-2.72a2,2,0,0,0-1.37.42l-.89.77A1.32,1.32,0,0,0,140.58,43.1Z" fill="#189e94"/><path d="M167.88,53.33h-7.94a1.24,1.24,0,0,1-.93-.4,1.32,1.32,0,0,1-.38-.95,1.27,1.27,0,0,1,.38-.92,1.25,1.25,0,0,1,.93-.39h2.63V35.19h-2.66a1.31,1.31,0,1,1,0-2.62h4a1.33,1.33,0,0,1,1.31,1.31v16.8h2.66A1.33,1.33,0,0,1,169.19,52a1.32,1.32,0,0,1-.38.95A1.24,1.24,0,0,1,167.88,53.33Z" fill="#189e94"/><path d="M187.21,53.3h-8a1.31,1.31,0,0,1,0-2.62h2.69v-9.8h-2.66a1.25,1.25,0,0,1-.93-.39,1.27,1.27,0,0,1-.38-.92,1.32,1.32,0,0,1,.38-.95,1.24,1.24,0,0,1,.93-.4h4a1.24,1.24,0,0,1,.93.4,1.32,1.32,0,0,1,.38.95V50.68h2.63a1.32,1.32,0,0,1,.95.38,1.29,1.29,0,0,1,0,1.86A1.27,1.27,0,0,1,187.21,53.3Zm-5.34-21.89h1.38a1.31,1.31,0,0,1,1.31,1.31v1.13a1.32,1.32,0,0,1-.38.95,1.24,1.24,0,0,1-.93.4h-1.41a1.25,1.25,0,0,1-.95-.41,1.23,1.23,0,0,1-.37-.91l0-1.16a1.31,1.31,0,0,1,1.31-1.31Z" fill="#189e94"/><path d="M209.16,43v5.55a4.37,4.37,0,0,1-1.66,3.27,5.11,5.11,0,0,1-3.43,1.5H201a5,5,0,0,1-3.44-1.52,4.42,4.42,0,0,1-1.64-3.24V43a4.46,4.46,0,0,1,1.6-3.24A5,5,0,0,1,201,38.22h3.08a5,5,0,0,1,3.43,1.47A4.4,4.4,0,0,1,209.16,43Zm-10.59.11v5.31a1.4,1.4,0,0,0,.52,1.14l1,.84a1.37,1.37,0,0,0,.92.28h3a1.79,1.79,0,0,0,1.22-.48l.8-.7a1.25,1.25,0,0,0,.48-1V43.13a1.37,1.37,0,0,0-.48-1.16l-.92-.73a1.66,1.66,0,0,0-1.09-.39h-2.72a2,2,0,0,0-1.37.42l-.89.77A1.32,1.32,0,0,0,198.57,43.1Z" fill="#189e94"/><path d="M134.74,101V89.78h2.94a4.86,4.86,0,0,1,1.78.32,4.37,4.37,0,0,1,1.49,1,3.89,3.89,0,0,1,1,1.71,9,9,0,0,1,.33,2.63,5.74,5.74,0,0,1-1.39,4.29,4.43,4.43,0,0,1-3.21,1.33Zm1-1h2A3.54,3.54,0,0,0,140.23,99a3.19,3.19,0,0,0,.82-1.44,7.7,7.7,0,0,0,.27-2.17,8,8,0,0,0-.24-2.08,4,4,0,0,0-.71-1.47,2.87,2.87,0,0,0-1.14-.87,4,4,0,0,0-1.56-.29h-2Z" fill="#189e94"/><path d="M149.75,99.59a3.14,3.14,0,0,1-3.83,1.21,3.18,3.18,0,0,1-1-.68,2.69,2.69,0,0,1-.66-1.13,5.46,5.46,0,0,1-.22-1.66,5.64,5.64,0,0,1,.22-1.64,2.75,2.75,0,0,1,.65-1.15,3.25,3.25,0,0,1,1-.68,3.21,3.21,0,0,1,2.44,0,3.29,3.29,0,0,1,1,.68,2.68,2.68,0,0,1,.61,1.14,6.19,6.19,0,0,1,.22,1.74H145a4.3,4.3,0,0,0,.16,1.18,2.26,2.26,0,0,0,.42.82,1.69,1.69,0,0,0,.66.48,2.3,2.3,0,0,0,.88.16,2.17,2.17,0,0,0,1-.22,2,2,0,0,0,.71-.62Zm-.56-3.1a1.94,1.94,0,0,0-.58-1.4,1.85,1.85,0,0,0-.62-.37,2.49,2.49,0,0,0-.85-.13,2.91,2.91,0,0,0-.86.12,1.53,1.53,0,0,0-.64.38,1.8,1.8,0,0,0-.39.56,2.56,2.56,0,0,0-.2.84Z" fill="#189e94"/><path d="M155.58,95.17a1.27,1.27,0,0,0-.59-.43,2.71,2.71,0,0,0-.94-.14,1.55,1.55,0,0,0-1.15.32,1.12,1.12,0,0,0-.3.83.43.43,0,0,0,.14.27,2.21,2.21,0,0,0,.38.32,5.88,5.88,0,0,0,.59.34l.76.38a7.64,7.64,0,0,1,.79.43,3.94,3.94,0,0,1,.63.48,2.38,2.38,0,0,1,.41.5,1,1,0,0,1,.15.49,2.48,2.48,0,0,1-.13.81,2,2,0,0,1-.4.68,1.64,1.64,0,0,1-.73.42A3.72,3.72,0,0,1,154,101a2.72,2.72,0,0,1-1.41-.34,2.36,2.36,0,0,1-.92-1.07l.86-.27a1,1,0,0,0,.52.55,2.19,2.19,0,0,0,.95.18,2.06,2.06,0,0,0,1.11-.24,1,1,0,0,0,.36-.88.48.48,0,0,0-.15-.32,2.29,2.29,0,0,0-.41-.34,5.79,5.79,0,0,0-.59-.34q-.34-.17-.71-.33a6.74,6.74,0,0,1-.82-.43,4.24,4.24,0,0,1-.64-.48,2.17,2.17,0,0,1-.41-.49,1,1,0,0,1-.15-.48,2.48,2.48,0,0,1,.14-.86,2,2,0,0,1,.39-.66,1.68,1.68,0,0,1,.75-.44,3.77,3.77,0,0,1,1.14-.15,3.46,3.46,0,0,1,1.41.26,2.14,2.14,0,0,1,.95.81Z" fill="#189e94"/><path d="M162.7,95.33a2.06,2.06,0,0,0-.74-.55,2.47,2.47,0,0,0-1-.19,2.35,2.35,0,0,0-.9.16,1.72,1.72,0,0,0-.66.47,3.21,3.21,0,0,0-.55,2.12,4.56,4.56,0,0,0,.15,1.27,2.56,2.56,0,0,0,.39.84,1.55,1.55,0,0,0,.66.47,2.53,2.53,0,0,0,.9.15,2.2,2.2,0,0,0,1-.22,2.05,2.05,0,0,0,.73-.64l.92.31a3.57,3.57,0,0,1-1.17,1.12,3.08,3.08,0,0,1-3.7-.54,2.87,2.87,0,0,1-.65-1.13,5.34,5.34,0,0,1-.22-1.64,5.82,5.82,0,0,1,.21-1.64,2.7,2.7,0,0,1,.65-1.15,3.27,3.27,0,0,1,1-.67,3.16,3.16,0,0,1,2.73.13,3.42,3.42,0,0,1,1.17,1.15Z" fill="#189e94"/><path d="M165.15,101v-7.4h.93v1a2.83,2.83,0,0,1,1-.73,2.79,2.79,0,0,1,1.15-.23,3.31,3.31,0,0,1,1.26.22,2.57,2.57,0,0,1,.93.66l-.54.71a2.39,2.39,0,0,0-.73-.47,2.42,2.42,0,0,0-.92-.16,2.2,2.2,0,0,0-.88.16,2,2,0,0,0-.67.47,2,2,0,0,0-.43.85,5.16,5.16,0,0,0-.14,1.27V101Z" fill="#189e94"/><path d="M173,91.07a.42.42,0,0,1,.34.14.48.48,0,0,1,.12.33.46.46,0,1,1-.91,0,.5.5,0,0,1,.11-.33A.42.42,0,0,1,173,91.07Zm-.46,10v-7.4h.91V101Z" fill="#189e94"/><path d="M175.93,104.9V93.63h1v1a2.67,2.67,0,0,1,2.08-1,3,3,0,0,1,1.22.25,3.11,3.11,0,0,1,1,.67,2.8,2.8,0,0,1,.64,1.15,5.64,5.64,0,0,1,.22,1.64,5.34,5.34,0,0,1-.22,1.64,3,3,0,0,1-.63,1.13,2.85,2.85,0,0,1-2.2.93,2.69,2.69,0,0,1-2.08-.95v4.81ZM179,94.59a2.14,2.14,0,0,0-.88.17,2,2,0,0,0-.66.46,1.88,1.88,0,0,0-.42.87,5.52,5.52,0,0,0-.13,1.25,5.11,5.11,0,0,0,.14,1.25,2.13,2.13,0,0,0,.41.86,1.61,1.61,0,0,0,.67.47,2.43,2.43,0,0,0,.87.15,2.36,2.36,0,0,0,.86-.15,1.68,1.68,0,0,0,.67-.47,2.53,2.53,0,0,0,.43-.86,4.34,4.34,0,0,0,.16-1.25,4.91,4.91,0,0,0-.15-1.25,2,2,0,0,0-.44-.87,2.23,2.23,0,0,0-.67-.45A2.07,2.07,0,0,0,179,94.59Z" fill="#189e94"/><path d="M185.74,91.07v2.56h1.94v1h-1.94v4a3.36,3.36,0,0,0,.06.69,1,1,0,0,0,.2.45.78.78,0,0,0,.35.24,1.44,1.44,0,0,0,.46.07l.46,0a2.11,2.11,0,0,0,.41-.08v.87a1.69,1.69,0,0,1-.86.19,2.69,2.69,0,0,1-.82-.12,1.64,1.64,0,0,1-.67-.41,1.58,1.58,0,0,1-.4-.76,5,5,0,0,1-.11-1.11v-4h-1.34v-1h1.34V91.07Z" fill="#189e94"/><path d="M190.33,91.07a.42.42,0,0,1,.34.14.48.48,0,0,1,.12.33.46.46,0,1,1-.91,0,.5.5,0,0,1,.11-.33A.42.42,0,0,1,190.33,91.07Zm-.46,10v-7.4h.91V101Z" fill="#189e94"/><path d="M193,97.34a5.51,5.51,0,0,1,.22-1.63,2.86,2.86,0,0,1,.66-1.16,3.25,3.25,0,0,1,1-.68,3,3,0,0,1,1.22-.24,3,3,0,0,1,1.21.24,3.19,3.19,0,0,1,1,.69,2.56,2.56,0,0,1,.63,1.14,6.06,6.06,0,0,1,.2,1.65,3.92,3.92,0,0,1-.83,2.76A2.91,2.91,0,0,1,196,101a3,3,0,0,1-1.22-.23,3.18,3.18,0,0,1-1-.68,2.69,2.69,0,0,1-.66-1.13A5.46,5.46,0,0,1,193,97.34ZM196,94.59a2.39,2.39,0,0,0-.9.16,1.64,1.64,0,0,0-.66.47,2.32,2.32,0,0,0-.4.85,4.69,4.69,0,0,0-.16,1.26,4.47,4.47,0,0,0,.16,1.26,2.62,2.62,0,0,0,.4.85,1.39,1.39,0,0,0,.66.48,2.7,2.7,0,0,0,.9.14,2.56,2.56,0,0,0,.86-.14,1.49,1.49,0,0,0,.67-.48,3.24,3.24,0,0,0,.56-2.11,5.14,5.14,0,0,0-.14-1.26,2,2,0,0,0-.42-.86,1.88,1.88,0,0,0-.67-.46A2.22,2.22,0,0,0,196,94.59Z" fill="#189e94"/><path d="M200.65,101v-7.4h.95v1a2.73,2.73,0,0,1,2.11-1,3,3,0,0,1,1.22.25,3.12,3.12,0,0,1,1,.67,2.92,2.92,0,0,1,.65,1.15,5.36,5.36,0,0,1,.23,1.64V101h-1V97.34a4.77,4.77,0,0,0-.15-1.26,2.06,2.06,0,0,0-.43-.86,2.09,2.09,0,0,0-.67-.45,2.14,2.14,0,0,0-.87-.18,2.29,2.29,0,0,0-.89.16,1.72,1.72,0,0,0-.66.47,2.13,2.13,0,0,0-.41.85,4.82,4.82,0,0,0-.15,1.26V101Z" fill="#189e94"/><path d="M211.59,95.12a5,5,0,0,1,.48-.63,2.09,2.09,0,0,1,.51-.42,3.32,3.32,0,0,1,.79-.32,3.57,3.57,0,0,1,.91-.11,4.11,4.11,0,0,1,1.34.19,1.63,1.63,0,0,1,.81.56,3.5,3.5,0,0,1,.41.83,2.82,2.82,0,0,1,.16.94V101h-.95v-.31a4.46,4.46,0,0,1-1.78.31,4,4,0,0,1-1.14-.16,2.55,2.55,0,0,1-.88-.44,2,2,0,0,1-.53-.68,1.91,1.91,0,0,1-.18-.81,2.26,2.26,0,0,1,.51-1.45q.47-.61,2.23-.61a3.66,3.66,0,0,0,.84-.08,1.39,1.39,0,0,0,.53-.22,1.22,1.22,0,0,0,.29-.36.91.91,0,0,0,.12-.45.84.84,0,0,0-.12-.44,2.29,2.29,0,0,0-.3-.39,1.2,1.2,0,0,0-.54-.26,3.59,3.59,0,0,0-.82-.08,4.63,4.63,0,0,0-.53,0,1.59,1.59,0,0,0-.51.14,1.27,1.27,0,0,0-.39.26,1.14,1.14,0,0,0-.28.41Zm4.48,2.18a2,2,0,0,1-.76.39,3.73,3.73,0,0,1-1,.12,2.55,2.55,0,0,0-1.34.27,1.14,1.14,0,0,0-.36.37,1,1,0,0,0-.12.5.93.93,0,0,0,.43.87,2.67,2.67,0,0,0,1.34.26,5.25,5.25,0,0,0,.62,0,2.36,2.36,0,0,0,.55-.13,1,1,0,0,0,.45-.35,1.06,1.06,0,0,0,.16-.61Z" fill="#189e94"/><path d="M218.58,101v-7.4h.95v1a2.73,2.73,0,0,1,2.11-1,3,3,0,0,1,1.22.25,3.12,3.12,0,0,1,1,.67,2.92,2.92,0,0,1,.65,1.15,5.36,5.36,0,0,1,.23,1.64V101h-1V97.34a4.77,4.77,0,0,0-.15-1.26,2.06,2.06,0,0,0-.43-.86,2.09,2.09,0,0,0-.67-.45,2.14,2.14,0,0,0-.87-.18,2.29,2.29,0,0,0-.89.16,1.72,1.72,0,0,0-.66.47,2.13,2.13,0,0,0-.41.85,4.82,4.82,0,0,0-.15,1.26V101Z" fill="#189e94"/><path d="M231.33,101v-.95a2.88,2.88,0,0,1-.93.71,2.73,2.73,0,0,1-1.16.24,3,3,0,0,1-1.22-.23,3.18,3.18,0,0,1-1-.68,2.69,2.69,0,0,1-.66-1.13,6.23,6.23,0,0,1,0-3.28,2.86,2.86,0,0,1,.66-1.16,3.25,3.25,0,0,1,1-.68,3,3,0,0,1,1.22-.24,2.67,2.67,0,0,1,1.16.24,2.82,2.82,0,0,1,.93.74V89.78h.95V101Zm-2.09-6.44a2.39,2.39,0,0,0-.9.16,1.64,1.64,0,0,0-.66.47,2.32,2.32,0,0,0-.4.85,4.69,4.69,0,0,0-.16,1.26,4.47,4.47,0,0,0,.16,1.26,2.62,2.62,0,0,0,.4.85,1.39,1.39,0,0,0,.66.48,2.7,2.7,0,0,0,.9.14,2.56,2.56,0,0,0,.86-.14,1.49,1.49,0,0,0,.67-.48,3.24,3.24,0,0,0,.56-2.11,5.14,5.14,0,0,0-.14-1.26,2,2,0,0,0-.42-.86,1.88,1.88,0,0,0-.67-.46A2.22,2.22,0,0,0,229.24,94.59Z" fill="#189e94"/><path d="M240.65,89.78A4.23,4.23,0,0,1,242,90a2.14,2.14,0,0,1,.93.62,3,3,0,0,1,.54,1,3.79,3.79,0,0,1,.19,1.22,3.16,3.16,0,0,1-.75,2.3,3.1,3.1,0,0,1-2.3.76h-2V101h-1V89.78Zm-2,5.15h2.08a2.33,2.33,0,0,0,.78-.13,1.74,1.74,0,0,0,.64-.39,2.09,2.09,0,0,0,.56-1.61,2.7,2.7,0,0,0-.14-.89,1.64,1.64,0,0,0-.43-.67,1.91,1.91,0,0,0-.64-.39,2.46,2.46,0,0,0-.87-.14h-2Z" fill="#189e94"/><path d="M245.61,101v-7.4h.93v1a2.83,2.83,0,0,1,1-.73,2.79,2.79,0,0,1,1.15-.23,3.31,3.31,0,0,1,1.26.22,2.57,2.57,0,0,1,.93.66l-.54.71a2.39,2.39,0,0,0-.73-.47,2.42,2.42,0,0,0-.92-.16,2.2,2.2,0,0,0-.88.16,2,2,0,0,0-.67.47,2,2,0,0,0-.43.85,5.16,5.16,0,0,0-.14,1.27V101Z" fill="#189e94"/><path d="M253.46,91.07a.42.42,0,0,1,.34.14.47.47,0,0,1,.12.33.46.46,0,1,1-.91,0,.5.5,0,0,1,.11-.33A.42.42,0,0,1,253.46,91.07ZM253,101v-7.4h.91V101Z" fill="#189e94"/><path d="M260.9,95.33a2.05,2.05,0,0,0-.74-.55,2.47,2.47,0,0,0-1-.19,2.35,2.35,0,0,0-.9.16,1.73,1.73,0,0,0-.66.47,3.21,3.21,0,0,0-.55,2.12,4.56,4.56,0,0,0,.15,1.27,2.56,2.56,0,0,0,.39.84,1.55,1.55,0,0,0,.66.47,2.53,2.53,0,0,0,.9.15,2.2,2.2,0,0,0,1-.22,2,2,0,0,0,.73-.64l.92.31a3.57,3.57,0,0,1-1.17,1.12,3.08,3.08,0,0,1-3.7-.54,2.86,2.86,0,0,1-.65-1.13,5.32,5.32,0,0,1-.22-1.64,5.8,5.8,0,0,1,.21-1.64,2.69,2.69,0,0,1,.65-1.15,3.27,3.27,0,0,1,1-.67,3.16,3.16,0,0,1,2.73.13,3.42,3.42,0,0,1,1.17,1.15Z" fill="#189e94"/><path d="M268.93,99.59a3.14,3.14,0,0,1-3.83,1.21,3.18,3.18,0,0,1-1-.68,2.68,2.68,0,0,1-.66-1.13,5.46,5.46,0,0,1-.22-1.66,5.62,5.62,0,0,1,.22-1.64,2.74,2.74,0,0,1,.65-1.15,3.24,3.24,0,0,1,1-.68,3.21,3.21,0,0,1,2.44,0,3.3,3.3,0,0,1,1,.68,2.68,2.68,0,0,1,.61,1.14,6.17,6.17,0,0,1,.22,1.74H264.2a4.29,4.29,0,0,0,.16,1.18,2.26,2.26,0,0,0,.42.82,1.69,1.69,0,0,0,.66.48,2.3,2.3,0,0,0,.88.16,2.17,2.17,0,0,0,1-.22,2,2,0,0,0,.71-.62Zm-.56-3.1a1.94,1.94,0,0,0-.58-1.4,1.86,1.86,0,0,0-.62-.37,2.49,2.49,0,0,0-.85-.13,2.91,2.91,0,0,0-.86.12,1.53,1.53,0,0,0-.64.38,1.78,1.78,0,0,0-.39.56,2.55,2.55,0,0,0-.2.84Z" fill="#189e94"/><path d="M134.74,155.34V144.08h6.66V145H135.7v4.23h3.88v.93H135.7v4.21h5.69v1Z" fill="#189e94"/><path d="M143.17,147.94H144l2,3,2-3h.9l-2.49,3.71,2.49,3.69h-.88l-2-3-2,3h-.89l2.43-3.69Z" fill="#189e94"/><path d="M150.41,149.42a4.92,4.92,0,0,1,.48-.63,2.09,2.09,0,0,1,.51-.42,3.32,3.32,0,0,1,.79-.32,3.55,3.55,0,0,1,.91-.11,4.1,4.1,0,0,1,1.34.19,1.63,1.63,0,0,1,.81.56,3.52,3.52,0,0,1,.41.83,2.83,2.83,0,0,1,.16.94v4.89h-.95V155a4.47,4.47,0,0,1-1.78.31,4,4,0,0,1-1.14-.16,2.55,2.55,0,0,1-.88-.44,2,2,0,0,1-.53-.68,1.91,1.91,0,0,1-.18-.81,2.25,2.25,0,0,1,.51-1.45q.47-.62,2.23-.61a3.69,3.69,0,0,0,.84-.08,1.39,1.39,0,0,0,.53-.22,1.22,1.22,0,0,0,.29-.36.91.91,0,0,0,.12-.45.84.84,0,0,0-.12-.44,2.26,2.26,0,0,0-.3-.39,1.2,1.2,0,0,0-.54-.26,3.62,3.62,0,0,0-.82-.08,4.74,4.74,0,0,0-.53,0,1.59,1.59,0,0,0-.51.14,1.26,1.26,0,0,0-.39.26,1.14,1.14,0,0,0-.28.41Zm4.48,2.18a1.94,1.94,0,0,1-.76.39,3.71,3.71,0,0,1-1,.12,2.55,2.55,0,0,0-1.34.27,1.14,1.14,0,0,0-.36.37,1,1,0,0,0-.12.5.93.93,0,0,0,.43.87,2.67,2.67,0,0,0,1.34.26,5.25,5.25,0,0,0,.62,0,2.34,2.34,0,0,0,.55-.13,1,1,0,0,0,.45-.35,1.06,1.06,0,0,0,.16-.61Z" fill="#189e94"/><path d="M157.41,155.34v-7.4h.93v1a2.79,2.79,0,0,1,2.13-1,2.75,2.75,0,0,1,1.49.4,3.75,3.75,0,0,1,1.08,1,4.26,4.26,0,0,1,.49-.58,3.17,3.17,0,0,1,.58-.46,2.76,2.76,0,0,1,.69-.29,3.06,3.06,0,0,1,.81-.1,2.94,2.94,0,0,1,1.23.25,3.18,3.18,0,0,1,1,.67,2.88,2.88,0,0,1,.64,1.15,5.6,5.6,0,0,1,.22,1.64v3.69h-.93v-3.69a5.33,5.33,0,0,0-.14-1.28,1.92,1.92,0,0,0-.4-.83,2,2,0,0,0-.69-.47,2.29,2.29,0,0,0-.89-.16,2.08,2.08,0,0,0-.85.17,2.25,2.25,0,0,0-.67.46,1.87,1.87,0,0,0-.43.85,5.31,5.31,0,0,0-.13,1.27v3.69h-.94v-3.69a4.76,4.76,0,0,0-.15-1.26,2.06,2.06,0,0,0-.43-.86,1.82,1.82,0,0,0-.66-.46,2.26,2.26,0,0,0-.89-.17,2.19,2.19,0,0,0-.88.16,2,2,0,0,0-.66.47,3.1,3.1,0,0,0-.58,2.12v3.69Z" fill="#189e94"/><path d="M170.41,159.21V147.94h1v1a2.67,2.67,0,0,1,2.08-1,3,3,0,0,1,1.22.25,3.11,3.11,0,0,1,1,.67,2.8,2.8,0,0,1,.64,1.15,5.64,5.64,0,0,1,.22,1.64,5.34,5.34,0,0,1-.22,1.63,3,3,0,0,1-.63,1.13,2.85,2.85,0,0,1-2.2.93,2.69,2.69,0,0,1-2.08-.95v4.81Zm3.05-10.31a2.14,2.14,0,0,0-.88.17,2,2,0,0,0-.66.46,1.89,1.89,0,0,0-.42.87,5.52,5.52,0,0,0-.13,1.25,5.12,5.12,0,0,0,.14,1.25,2.14,2.14,0,0,0,.41.86,1.61,1.61,0,0,0,.67.47,2.43,2.43,0,0,0,.87.15,2.36,2.36,0,0,0,.86-.15,1.68,1.68,0,0,0,.67-.47,2.53,2.53,0,0,0,.43-.86,4.34,4.34,0,0,0,.16-1.25,4.91,4.91,0,0,0-.15-1.25,2,2,0,0,0-.44-.87,2.25,2.25,0,0,0-.67-.45A2.07,2.07,0,0,0,173.47,148.9Z" fill="#189e94"/><path d="M178.71,155.34V144.08h.91v11.26Z" fill="#189e94"/><path d="M187.5,153.9a3.14,3.14,0,0,1-3.83,1.21,3.17,3.17,0,0,1-1-.68,2.69,2.69,0,0,1-.66-1.12,5.46,5.46,0,0,1-.22-1.66A5.64,5.64,0,0,1,182,150a2.75,2.75,0,0,1,.65-1.15,3.24,3.24,0,0,1,1-.68,3.21,3.21,0,0,1,2.44,0,3.28,3.28,0,0,1,1,.68,2.68,2.68,0,0,1,.61,1.14,6.19,6.19,0,0,1,.22,1.74h-5.15a4.3,4.3,0,0,0,.16,1.18,2.26,2.26,0,0,0,.42.82,1.69,1.69,0,0,0,.66.48,2.31,2.31,0,0,0,.88.16,2.17,2.17,0,0,0,1-.22,2,2,0,0,0,.71-.62Zm-.56-3.1a1.94,1.94,0,0,0-.58-1.4,1.87,1.87,0,0,0-.62-.37,2.49,2.49,0,0,0-.85-.13,2.93,2.93,0,0,0-.86.12,1.54,1.54,0,0,0-.64.38,1.8,1.8,0,0,0-.39.56,2.57,2.57,0,0,0-.2.84Z" fill="#189e94"/><path d="M193.32,149.47a1.27,1.27,0,0,0-.59-.43,2.7,2.7,0,0,0-.94-.14,1.55,1.55,0,0,0-1.15.32,1.12,1.12,0,0,0-.3.83.43.43,0,0,0,.14.27,2.19,2.19,0,0,0,.38.32,5.79,5.79,0,0,0,.59.34l.76.38a7.73,7.73,0,0,1,.79.43,3.94,3.94,0,0,1,.63.48,2.39,2.39,0,0,1,.41.5,1,1,0,0,1,.15.49,2.48,2.48,0,0,1-.13.81,2,2,0,0,1-.4.68,1.64,1.64,0,0,1-.73.42,3.74,3.74,0,0,1-1.14.16,2.71,2.71,0,0,1-1.41-.34,2.36,2.36,0,0,1-.92-1.07l.86-.27a1,1,0,0,0,.52.55,2.19,2.19,0,0,0,.95.18,2.06,2.06,0,0,0,1.11-.24,1,1,0,0,0,.36-.88.48.48,0,0,0-.15-.32,2.31,2.31,0,0,0-.41-.34,5.88,5.88,0,0,0-.59-.34q-.34-.17-.71-.33a6.68,6.68,0,0,1-.82-.43,4.18,4.18,0,0,1-.64-.48,2.17,2.17,0,0,1-.41-.49,1,1,0,0,1-.15-.48,2.48,2.48,0,0,1,.14-.86,2,2,0,0,1,.39-.66,1.68,1.68,0,0,1,.75-.44,3.78,3.78,0,0,1,1.14-.15,3.46,3.46,0,0,1,1.41.26,2.14,2.14,0,0,1,.95.81Z" fill="#189e94"/><path d="M139.07,209.39a3.92,3.92,0,0,1-1.78-.41,4,4,0,0,1-1.37-1.14A5.27,5.27,0,0,1,135,206a8.32,8.32,0,0,1-.29-2.27,6.68,6.68,0,0,1,1.18-4,3.59,3.59,0,0,1,3-1.64,5.07,5.07,0,0,1,1.39.17,3.61,3.61,0,0,1,1.06.48,4.29,4.29,0,0,1,.76.65,3.5,3.5,0,0,1,.55.81l-.82.42a3.18,3.18,0,0,0-1.16-1.22,3.27,3.27,0,0,0-1.65-.39,2.65,2.65,0,0,0-1.4.38,3.27,3.27,0,0,0-1.06,1.08,5.35,5.35,0,0,0-.68,1.52,6.55,6.55,0,0,0-.22,1.74,6.31,6.31,0,0,0,.23,1.69,5.66,5.66,0,0,0,.68,1.53,3.13,3.13,0,0,0,1.06,1.07,2.71,2.71,0,0,0,1.4.37,6.41,6.41,0,0,0,1-.07,2.83,2.83,0,0,0,.8-.24,1.88,1.88,0,0,0,.57-.42,3.34,3.34,0,0,0,.5-.72l.77.32a4.84,4.84,0,0,1-.54.88,3.46,3.46,0,0,1-.68.66,2.71,2.71,0,0,1-1,.42A6.49,6.49,0,0,1,139.07,209.39Z" fill="#189e94"/><path d="M144.5,205.7a5.51,5.51,0,0,1,.22-1.63,2.86,2.86,0,0,1,.66-1.16,3.24,3.24,0,0,1,1-.68,3,3,0,0,1,1.22-.24,3,3,0,0,1,1.21.24,3.19,3.19,0,0,1,1,.69,2.56,2.56,0,0,1,.63,1.14,6.06,6.06,0,0,1,.2,1.65,3.92,3.92,0,0,1-.83,2.76,2.91,2.91,0,0,1-2.21.93,3,3,0,0,1-1.22-.23,3.17,3.17,0,0,1-1-.68,2.69,2.69,0,0,1-.66-1.12A5.46,5.46,0,0,1,144.5,205.7Zm3.08-2.75a2.39,2.39,0,0,0-.9.16,1.64,1.64,0,0,0-.66.47,2.32,2.32,0,0,0-.4.86,4.69,4.69,0,0,0-.16,1.26,4.47,4.47,0,0,0,.16,1.26,2.63,2.63,0,0,0,.4.85,1.39,1.39,0,0,0,.66.48,2.71,2.71,0,0,0,.9.14,2.58,2.58,0,0,0,.86-.14,1.49,1.49,0,0,0,.67-.48,3.24,3.24,0,0,0,.56-2.11,5.15,5.15,0,0,0-.14-1.26,2,2,0,0,0-.42-.86,1.89,1.89,0,0,0-.67-.46A2.23,2.23,0,0,0,147.58,203Z" fill="#189e94"/><path d="M152.19,209.39V202h.95v1a2.73,2.73,0,0,1,2.11-1,3,3,0,0,1,1.22.25,3.12,3.12,0,0,1,1,.67,2.91,2.91,0,0,1,.65,1.15,5.37,5.37,0,0,1,.23,1.64v3.69h-1V205.7a4.77,4.77,0,0,0-.15-1.26,2.06,2.06,0,0,0-.43-.86,2.1,2.1,0,0,0-.67-.45,2.14,2.14,0,0,0-.87-.18,2.29,2.29,0,0,0-.89.16,1.73,1.73,0,0,0-.66.47,2.13,2.13,0,0,0-.41.86,4.82,4.82,0,0,0-.15,1.26v3.69Z" fill="#189e94"/><path d="M162,199.43V202H164v1H162v4a3.37,3.37,0,0,0,.06.69,1,1,0,0,0,.2.45.78.78,0,0,0,.35.24,1.44,1.44,0,0,0,.46.07l.46,0a2,2,0,0,0,.41-.08v.87a1.69,1.69,0,0,1-.86.19,2.69,2.69,0,0,1-.82-.12,1.63,1.63,0,0,1-.67-.41,1.58,1.58,0,0,1-.4-.76,5,5,0,0,1-.11-1.11v-4h-1.34v-1h1.34v-2.56Z" fill="#189e94"/><path d="M165.45,203.48a4.92,4.92,0,0,1,.48-.63,2.09,2.09,0,0,1,.51-.42,3.32,3.32,0,0,1,.79-.32,3.55,3.55,0,0,1,.91-.11,4.1,4.1,0,0,1,1.34.19,1.63,1.63,0,0,1,.81.56,3.52,3.52,0,0,1,.41.83,2.83,2.83,0,0,1,.16.94v4.89h-.95v-.31a4.47,4.47,0,0,1-1.78.31,4,4,0,0,1-1.14-.16,2.55,2.55,0,0,1-.88-.44,2,2,0,0,1-.53-.68,1.91,1.91,0,0,1-.18-.81,2.25,2.25,0,0,1,.51-1.45q.47-.62,2.23-.61a3.69,3.69,0,0,0,.84-.08,1.39,1.39,0,0,0,.53-.22,1.22,1.22,0,0,0,.29-.36.91.91,0,0,0,.12-.45.84.84,0,0,0-.12-.44,2.26,2.26,0,0,0-.3-.39A1.2,1.2,0,0,0,169,203a3.62,3.62,0,0,0-.82-.08,4.74,4.74,0,0,0-.53,0,1.59,1.59,0,0,0-.51.14,1.26,1.26,0,0,0-.39.26,1.14,1.14,0,0,0-.28.41Zm4.48,2.18a1.94,1.94,0,0,1-.76.39,3.71,3.71,0,0,1-1,.12,2.55,2.55,0,0,0-1.34.27,1.14,1.14,0,0,0-.36.37,1,1,0,0,0-.12.5.93.93,0,0,0,.43.87,2.67,2.67,0,0,0,1.34.26,5.25,5.25,0,0,0,.62,0,2.34,2.34,0,0,0,.55-.13,1,1,0,0,0,.45-.35,1.06,1.06,0,0,0,.16-.61Z" fill="#189e94"/><path d="M177.14,203.69a2,2,0,0,0-.74-.55,2.46,2.46,0,0,0-1-.19,2.35,2.35,0,0,0-.9.16,1.73,1.73,0,0,0-.66.47,3.21,3.21,0,0,0-.55,2.12,4.56,4.56,0,0,0,.15,1.27,2.57,2.57,0,0,0,.39.84,1.55,1.55,0,0,0,.66.47,2.53,2.53,0,0,0,.9.15,2.2,2.2,0,0,0,1-.22,2,2,0,0,0,.73-.64l.92.31a3.57,3.57,0,0,1-1.17,1.13,3.08,3.08,0,0,1-3.7-.54,2.87,2.87,0,0,1-.65-1.13,5.34,5.34,0,0,1-.22-1.63,5.82,5.82,0,0,1,.21-1.64,2.7,2.7,0,0,1,.65-1.15,3.27,3.27,0,0,1,1-.67,3.16,3.16,0,0,1,2.73.13,3.42,3.42,0,0,1,1.17,1.15Z" fill="#189e94"/><path d="M181.72,199.43V202h1.94v1h-1.94v4a3.37,3.37,0,0,0,.06.69,1,1,0,0,0,.2.45.78.78,0,0,0,.35.24,1.44,1.44,0,0,0,.46.07l.46,0a2,2,0,0,0,.41-.08v.87a1.69,1.69,0,0,1-.86.19,2.69,2.69,0,0,1-.82-.12,1.63,1.63,0,0,1-.67-.41,1.58,1.58,0,0,1-.4-.76,5,5,0,0,1-.11-1.11v-4h-1.34v-1h1.34v-2.56Z" fill="#189e94"/><g id="Layer_2-2" data-name="Layer 2"><g id="Layer_1-2-2" data-name="Layer 1-2"><circle cx="109.77" cy="96.38" r="14.42" fill="none" stroke="#189e94" stroke-width="0.89"/><path d="M112.53,105.88h2a2.08,2.08,0,0,0,2.08-2.08V96.55a2.08,2.08,0,0,0-2.08-2.07H105a2.08,2.08,0,0,0-2.08,2.08v7.24a2.08,2.08,0,0,0,2.08,2.08h2" fill="none" stroke="#189e94" stroke-linecap="round" stroke-width="0.69"/><path d="M99.86,95.6l7.89-7.88a2.86,2.86,0,0,1,4,0l7.89,7.88" fill="none" stroke="#189e94" stroke-linecap="round" stroke-width="0.95"/><polyline points="107.11 105.88 107.11 100.62 112.42 100.62 112.42 105.88" fill="none" stroke="#189e94" stroke-linecap="round" stroke-linejoin="round" stroke-width="0.49"/></g></g><g id="Layer_2-3" data-name="Layer 2"><g id="Layer_1-2-3" data-name="Layer 1-2"><circle cx="109.83" cy="149.6" r="14.42" fill="none" stroke="#189e94" stroke-width="0.89"/><rect x="100.77" y="143.94" width="18.49" height="12.72" rx="1.65" ry="1.65" fill="none" stroke="#189e94" stroke-width="0.89"/><path d="M107.61,141.4h4.8a.69.69,0,0,1,.69.69v1.85h-6.18v-1.85a.69.69,0,0,1,.69-.69Z" fill="none" stroke="#189e94" stroke-width="0.89"/><line x1="100.77" y1="148.45" x2="110.03" y2="150.3" fill="none" stroke="#189e94" stroke-width="0.89"/><line x1="119.26" y1="148.45" x2="110.01" y2="150.3" fill="none" stroke="#189e94" stroke-width="0.89"/><line x1="109.48" y1="148.91" x2="110.47" y2="148.91" fill="none" stroke="#189e94" stroke-width="0.89"/></g></g><circle cx="110" cy="202.82" r="14.42" fill="none" stroke="#189e94" stroke-width="0.75"/><path d="M118.23,207a11.39,11.39,0,0,0-1.36-1.09,14.63,14.63,0,0,0-1.5-.93,2.77,2.77,0,0,0-1.23-.44,1.07,1.07,0,0,0-.89.53,4.46,4.46,0,0,0-.41.8,3.34,3.34,0,0,1-.3.61v0h0a4.48,4.48,0,0,1-1.29-.69,11.77,11.77,0,0,1-3.41-3.41,4.58,4.58,0,0,1-.69-1.29v0l0,0a3.37,3.37,0,0,1,.6-.3l.05,0a4.39,4.39,0,0,0,.76-.39,1.06,1.06,0,0,0,.53-.89,2.73,2.73,0,0,0-.44-1.23,14.42,14.42,0,0,0-.93-1.5,11.66,11.66,0,0,0-1.09-1.36c-.47-.49-.83-.7-1.15-.7-.64,0-1.47.81-2,1.57a5.41,5.41,0,0,0-1.18,2.84,7.75,7.75,0,0,0,1.32,3.44,23.93,23.93,0,0,0,3.14,4l.4.4a23.81,23.81,0,0,0,4,3.15,7.64,7.64,0,0,0,3.44,1.32,5.4,5.4,0,0,0,2.84-1.18c.75-.57,1.57-1.4,1.57-2A1.84,1.84,0,0,0,118.23,207Zm-3.7,3.45a6.75,6.75,0,0,1-3-1.18,23.21,23.21,0,0,1-3.82-3l-.39-.39a23.31,23.31,0,0,1-3-3.82,6.76,6.76,0,0,1-1.18-3,4.27,4.27,0,0,1,1-2.24,5.74,5.74,0,0,1,.83-.91,1.51,1.51,0,0,1,.5-.32h0a6.21,6.21,0,0,1,1.57,1.76,13.46,13.46,0,0,1,.82,1.33,2.6,2.6,0,0,1,.32.77v0a.71.71,0,0,1-.21.17,5.41,5.41,0,0,1-.53.24l-.06,0a4.77,4.77,0,0,0-.7.35.91.91,0,0,0-.48.78c0,.15,0,.6.86,1.85a12.76,12.76,0,0,0,3.65,3.66c1.25.85,1.7.86,1.85.86a.94.94,0,0,0,.8-.49,4.89,4.89,0,0,0,.35-.69,5.63,5.63,0,0,1,.28-.57.66.66,0,0,1,.17-.21h0a3,3,0,0,1,.77.32,13.49,13.49,0,0,1,1.34.82,5.9,5.9,0,0,1,1.75,1.57h0a1.52,1.52,0,0,1-.32.49,6,6,0,0,1-.91.83A4.41,4.41,0,0,1,114.53,210.47Z" fill="none" stroke="#189e94" stroke-width="0.5"/><path d="M404.66,229.64V221.7h.67v7.95Z" fill="#189e94"/><path d="M406.59,227a3.9,3.9,0,0,1,.15-1.15,2,2,0,0,1,.47-.82,2.3,2.3,0,0,1,.69-.48,2.09,2.09,0,0,1,.86-.17,2.14,2.14,0,0,1,.85.17,2.24,2.24,0,0,1,.71.48,1.81,1.81,0,0,1,.44.81,4.28,4.28,0,0,1,.14,1.16,2.77,2.77,0,0,1-.59,2,2.06,2.06,0,0,1-1.56.66,2.14,2.14,0,0,1-.86-.16,2.24,2.24,0,0,1-.69-.48,1.9,1.9,0,0,1-.46-.79A3.86,3.86,0,0,1,406.59,227Zm2.17-1.94a1.69,1.69,0,0,0-.64.11,1.16,1.16,0,0,0-.47.33,1.64,1.64,0,0,0-.28.6,3.31,3.31,0,0,0-.11.89,3.15,3.15,0,0,0,.11.89,1.85,1.85,0,0,0,.28.6,1,1,0,0,0,.46.34,1.91,1.91,0,0,0,.64.1,1.81,1.81,0,0,0,.61-.1,1.05,1.05,0,0,0,.47-.34,2.29,2.29,0,0,0,.39-1.49,3.64,3.64,0,0,0-.1-.89,1.39,1.39,0,0,0-.29-.61,1.33,1.33,0,0,0-.47-.33A1.57,1.57,0,0,0,408.77,225.1Z" fill="#189e94"/><path d="M412,225.47a3.5,3.5,0,0,1,.34-.45,1.47,1.47,0,0,1,.36-.3,2.36,2.36,0,0,1,.56-.23,2.52,2.52,0,0,1,.64-.08,2.91,2.91,0,0,1,.95.13,1.15,1.15,0,0,1,.57.39,2.48,2.48,0,0,1,.29.59,2,2,0,0,1,.11.66v3.45h-.67v-.22a3.14,3.14,0,0,1-1.26.22,2.81,2.81,0,0,1-.81-.11,1.81,1.81,0,0,1-.62-.31,1.38,1.38,0,0,1-.37-.48,1.35,1.35,0,0,1-.13-.57,1.59,1.59,0,0,1,.36-1q.33-.43,1.58-.43a2.58,2.58,0,0,0,.59-.06,1,1,0,0,0,.37-.16.86.86,0,0,0,.21-.25.64.64,0,0,0,.08-.32.59.59,0,0,0-.08-.31,1.59,1.59,0,0,0-.21-.28.85.85,0,0,0-.38-.18,2.53,2.53,0,0,0-.58-.06l-.37,0a1.12,1.12,0,0,0-.36.1.9.9,0,0,0-.27.18.8.8,0,0,0-.2.29Zm3.16,1.54a1.38,1.38,0,0,1-.53.27,2.64,2.64,0,0,1-.7.08,1.8,1.8,0,0,0-.95.19.8.8,0,0,0-.25.26.71.71,0,0,0-.08.35.66.66,0,0,0,.3.61,1.89,1.89,0,0,0,.95.18l.44,0a1.65,1.65,0,0,0,.39-.09.68.68,0,0,0,.32-.25.75.75,0,0,0,.11-.43Z" fill="#189e94"/><path d="M416.9,229.64v-5.23h.67v.68a1.92,1.92,0,0,1,1.49-.68,2.11,2.11,0,0,1,.86.18,2.2,2.2,0,0,1,.69.47,2.06,2.06,0,0,1,.46.81,3.78,3.78,0,0,1,.16,1.16v2.61h-.67V227a3.36,3.36,0,0,0-.11-.89,1.46,1.46,0,0,0-.3-.61,1.48,1.48,0,0,0-.47-.32,1.51,1.51,0,0,0-.62-.13,1.62,1.62,0,0,0-.63.11,1.22,1.22,0,0,0-.46.33,1.5,1.5,0,0,0-.29.6,3.39,3.39,0,0,0-.11.89v2.61Z" fill="#189e94"/><path d="M426.27,228.63a2.22,2.22,0,0,1-2.7.86,2.24,2.24,0,0,1-.69-.48,1.9,1.9,0,0,1-.46-.79,3.86,3.86,0,0,1-.16-1.17,4,4,0,0,1,.15-1.16,1.94,1.94,0,0,1,.46-.81,2.3,2.3,0,0,1,.69-.48,2.27,2.27,0,0,1,1.72,0,2.32,2.32,0,0,1,.71.48,1.89,1.89,0,0,1,.43.8,4.37,4.37,0,0,1,.15,1.23h-3.64a3,3,0,0,0,.11.83,1.6,1.6,0,0,0,.3.58,1.19,1.19,0,0,0,.47.34,1.62,1.62,0,0,0,.62.11,1.53,1.53,0,0,0,.71-.16,1.44,1.44,0,0,0,.5-.44Zm-.4-2.19a1.37,1.37,0,0,0-.41-1,1.31,1.31,0,0,0-.44-.26,1.76,1.76,0,0,0-.6-.09,2.06,2.06,0,0,0-.61.08,1.08,1.08,0,0,0-.45.27,1.27,1.27,0,0,0-.27.4,1.81,1.81,0,0,0-.14.59Z" fill="#189e94"/><path d="M435.07,229.64l-4.19-6.78v6.78h-.68V221.7h.74l4.2,6.75V221.7h.66v7.95Z" fill="#189e94"/><path d="M437.08,225.47a3.5,3.5,0,0,1,.34-.45,1.47,1.47,0,0,1,.36-.3,2.36,2.36,0,0,1,.56-.23,2.52,2.52,0,0,1,.64-.08,2.91,2.91,0,0,1,.95.13,1.15,1.15,0,0,1,.57.39,2.48,2.48,0,0,1,.29.59,2,2,0,0,1,.11.66v3.45h-.67v-.22a3.14,3.14,0,0,1-1.26.22,2.81,2.81,0,0,1-.81-.11,1.81,1.81,0,0,1-.62-.31,1.38,1.38,0,0,1-.37-.48,1.35,1.35,0,0,1-.13-.57,1.59,1.59,0,0,1,.36-1q.33-.43,1.58-.43a2.58,2.58,0,0,0,.59-.06,1,1,0,0,0,.37-.16.86.86,0,0,0,.21-.25.64.64,0,0,0,.08-.32.59.59,0,0,0-.08-.31,1.59,1.59,0,0,0-.21-.28.85.85,0,0,0-.38-.18,2.53,2.53,0,0,0-.58-.06l-.37,0a1.12,1.12,0,0,0-.36.1.9.9,0,0,0-.27.18.8.8,0,0,0-.2.29Zm3.16,1.54a1.38,1.38,0,0,1-.53.27,2.64,2.64,0,0,1-.7.08,1.8,1.8,0,0,0-.95.19.8.8,0,0,0-.25.26.71.71,0,0,0-.08.35.66.66,0,0,0,.3.61,1.89,1.89,0,0,0,.95.18l.44,0a1.65,1.65,0,0,0,.39-.09.68.68,0,0,0,.32-.25.75.75,0,0,0,.11-.43Z" fill="#189e94"/><path d="M443.52,222.61v1.81h1.37v.68h-1.37v2.85a2.35,2.35,0,0,0,0,.49.68.68,0,0,0,.14.32.55.55,0,0,0,.25.17,1,1,0,0,0,.33,0h.32l.29-.06v.62a1.19,1.19,0,0,1-.61.13,1.89,1.89,0,0,1-.58-.08,1.16,1.16,0,0,1-.47-.29,1.12,1.12,0,0,1-.28-.54,3.52,3.52,0,0,1-.08-.79V225.1h-.95v-.68h.95v-1.81Z" fill="#189e94"/><path d="M446,229.64v-5.23h.66v.68a2,2,0,0,1,.68-.52,2,2,0,0,1,.81-.16,2.34,2.34,0,0,1,.89.15,1.81,1.81,0,0,1,.66.47l-.38.5a1.7,1.7,0,0,0-.52-.33,1.72,1.72,0,0,0-.65-.11,1.56,1.56,0,0,0-.62.11,1.41,1.41,0,0,0-.47.33,1.37,1.37,0,0,0-.3.6,3.63,3.63,0,0,0-.1.9v2.61Z" fill="#189e94"/><path d="M450.7,227a3.9,3.9,0,0,1,.15-1.15,2,2,0,0,1,.47-.82,2.3,2.3,0,0,1,.69-.48,2.09,2.09,0,0,1,.86-.17,2.14,2.14,0,0,1,.85.17,2.24,2.24,0,0,1,.71.48,1.81,1.81,0,0,1,.44.81A4.28,4.28,0,0,1,455,227a2.77,2.77,0,0,1-.59,2,2.06,2.06,0,0,1-1.56.66,2.14,2.14,0,0,1-.86-.16,2.24,2.24,0,0,1-.69-.48,1.9,1.9,0,0,1-.46-.79A3.86,3.86,0,0,1,450.7,227Zm2.17-1.94a1.69,1.69,0,0,0-.64.11,1.16,1.16,0,0,0-.47.33,1.64,1.64,0,0,0-.28.6,3.31,3.31,0,0,0-.11.89,3.15,3.15,0,0,0,.11.89,1.85,1.85,0,0,0,.28.6,1,1,0,0,0,.46.34,1.91,1.91,0,0,0,.64.1,1.81,1.81,0,0,0,.61-.1,1.05,1.05,0,0,0,.47-.34,2.29,2.29,0,0,0,.39-1.49,3.64,3.64,0,0,0-.1-.89,1.39,1.39,0,0,0-.29-.61,1.33,1.33,0,0,0-.47-.33A1.57,1.57,0,0,0,452.88,225.1Z" fill="#189e94"/><path d="M458.83,225.5a.9.9,0,0,0-.42-.3,1.92,1.92,0,0,0-.67-.1,1.09,1.09,0,0,0-.81.23.79.79,0,0,0-.21.59.3.3,0,0,0,.1.19,1.54,1.54,0,0,0,.27.22,4.15,4.15,0,0,0,.42.24l.54.27a5.34,5.34,0,0,1,.56.3,2.76,2.76,0,0,1,.44.34,1.67,1.67,0,0,1,.29.35.68.68,0,0,1,.11.35,1.74,1.74,0,0,1-.09.57,1.41,1.41,0,0,1-.28.48,1.16,1.16,0,0,1-.52.3,2.62,2.62,0,0,1-.8.11,1.92,1.92,0,0,1-1-.24,1.66,1.66,0,0,1-.65-.76l.61-.19a.71.71,0,0,0,.37.39,1.55,1.55,0,0,0,.67.13,1.45,1.45,0,0,0,.78-.17.68.68,0,0,0,.25-.62.34.34,0,0,0-.11-.22,1.63,1.63,0,0,0-.29-.24,4.13,4.13,0,0,0-.42-.24l-.5-.23a4.74,4.74,0,0,1-.58-.3,3,3,0,0,1-.45-.34,1.53,1.53,0,0,1-.29-.35.67.67,0,0,1-.1-.34,1.76,1.76,0,0,1,.1-.61,1.4,1.4,0,0,1,.28-.47,1.18,1.18,0,0,1,.53-.31,2.65,2.65,0,0,1,.8-.11,2.44,2.44,0,0,1,1,.18,1.52,1.52,0,0,1,.67.57Z" fill="#189e94"/><path d="M460.67,229.64V221.7h.69v3.4a1.88,1.88,0,0,1,1.47-.68,2.12,2.12,0,0,1,.86.18,2.19,2.19,0,0,1,.69.47,2,2,0,0,1,.45.81A4,4,0,0,1,465,227v2.61h-.66V227a3.47,3.47,0,0,0-.1-.88,1.39,1.39,0,0,0-.31-.61,1.57,1.57,0,0,0-.47-.32,1.46,1.46,0,0,0-.6-.13,1.51,1.51,0,0,0-.62.12,1.43,1.43,0,0,0-.46.33,1.33,1.33,0,0,0-.3.61,3.9,3.9,0,0,0-.09.88v2.61Z" fill="#189e94"/><path d="M466,224.42h.7l1.85,4.56,1.85-4.56h.69l-2.19,5.23h-.7Z" fill="#189e94"/><path d="M472.94,222.61a.3.3,0,0,1,.24.1.34.34,0,0,1,.08.23.32.32,0,1,1-.64,0,.35.35,0,0,1,.08-.23A.3.3,0,0,1,472.94,222.61Zm-.32,7v-5.23h.64v5.23Z" fill="#189e94"/><path d="M475.32,229.64V221.7H476v7.95Z" fill="#189e94"/><path d="M478.35,222.61a.3.3,0,0,1,.24.1.34.34,0,0,1,.08.23.32.32,0,1,1-.64,0,.35.35,0,0,1,.08-.23A.3.3,0,0,1,478.35,222.61Zm-.32,7v-5.23h.64v5.23Z" fill="#189e94"/><path d="M400.05,226a5.16,5.16,0,1,1-5.13-5.25A5.17,5.17,0,0,1,400.05,226Zm-9.46.05a4.31,4.31,0,1,0,4.33-4.6A4.37,4.37,0,0,0,390.59,226.05Zm6.41-2a3.69,3.69,0,0,0-1.65-.39,2.2,2.2,0,0,0-2.39,2.39,2.26,2.26,0,0,0,2.4,2.4,3.33,3.33,0,0,0,1.72-.44l.2.65a3.89,3.89,0,0,1-2.1.53,2.94,2.94,0,0,1-3.12-3.08,3.14,3.14,0,0,1,3.26-3.17,3.36,3.36,0,0,1,1.88.46Z" fill="#189e94"/></g></g></svg>
